<svg id="svgContainer" xmlns="http://www.w3.org/2000/svg" viewBox="1.95 1.27 28.5 29.45"><path d="M15.104 8.807c-2.262 0.206 -4.292 0.928 -5.219 1.854 -0.519 0.519 -0.687 0.891 -0.719 1.594 -0.024 0.535 -0.013 0.6 0.156 0.922 0.361 0.685 1.073 0.98 2.055 0.85 1.008 -0.133 1.717 -0.634 2.734 -1.93 0.813 -1.037 1.265 -1.391 1.861 -1.458 0.228 -0.026 0.296 -0.002 0.483 0.164l0.217 0.194v1.826l-1.376 0.499c-1.886 0.684 -2.282 0.843 -3.168 1.271 -2.535 1.225 -3.742 2.722 -3.742 4.639 0 1.043 0.373 1.998 1.044 2.671 0.483 0.485 0.943 0.766 1.689 1.033 0.55 0.197 0.582 0.201 1.713 0.2 1.135 -0.001 1.161 -0.004 1.757 -0.211 0.332 -0.115 0.764 -0.308 0.96 -0.427 0.381 -0.233 1.019 -0.854 1.332 -1.295l0.191 -0.271 0.043 0.335c0.114 0.895 0.751 1.531 1.809 1.807 0.5 0.13 1.92 0.127 2.567 -0.005 0.627 -0.128 1.331 -0.409 1.795 -0.714 0.718 -0.472 1.404 -1.29 1.465 -1.747 0.029 -0.213 0.006 -0.274 -0.162 -0.443 -0.155 -0.155 -0.25 -0.195 -0.463 -0.195 -0.222 0 -0.303 0.037 -0.469 0.215 -0.238 0.256 -0.424 0.361 -0.637 0.361 -0.335 0 -0.329 0.064 -0.368 -3.866 -0.034 -3.5 -0.042 -3.676 -0.176 -4.166 -0.209 -0.766 -0.528 -1.36 -1.007 -1.877 -0.841 -0.908 -1.9 -1.432 -3.453 -1.707 -0.562 -0.1 -2.336 -0.173 -2.912 -0.12m1.058 6.212c-1.199 0.615 -1.826 1.799 -1.74 3.285 0.044 0.758 0.135 1.044 0.408 1.284 0.268 0.235 0.564 0.246 1.01 0.036 0.342 -0.161 0.514 -0.322 0.729 -0.68 0.129 -0.215 0.135 -0.306 0.135 -2.192 0 -1.082 -0.021 -1.967 -0.048 -1.965s-0.249 0.106 -0.494 0.232" stroke="none" fill="#fbfbfa" fill-rule="evenodd" stroke-width="0.064"/><path d="M15.264 1.317c-0.106 0.015 -0.466 0.058 -0.8 0.096 -5.276 0.599 -9.989 4.514 -11.743 9.758 -0.287 0.857 -0.498 1.744 -0.648 2.718 -0.141 0.918 -0.16 3.076 -0.034 3.968 0.417 2.961 1.428 5.319 3.253 7.584 2.855 3.544 7.43 5.566 11.81 5.221 2.12 -0.167 4.036 -0.731 5.708 -1.682 1.726 -0.981 3.004 -2.017 4.14 -3.355 1.026 -1.208 2.223 -3.305 2.682 -4.697 0.271 -0.822 0.547 -1.989 0.681 -2.88 0.155 -1.031 0.154 -3.089 -0.003 -4.128 -0.477 -3.162 -1.851 -6.003 -3.975 -8.217 -2.236 -2.332 -5.038 -3.8 -8.128 -4.259 -0.682 -0.101 -2.553 -0.182 -2.944 -0.127M15.104 8.807c-2.262 0.206 -4.292 0.928 -5.219 1.854 -0.519 0.519 -0.687 0.891 -0.719 1.594 -0.024 0.535 -0.013 0.6 0.156 0.922 0.361 0.685 1.073 0.98 2.055 0.85 1.008 -0.133 1.717 -0.634 2.734 -1.93 0.813 -1.037 1.265 -1.391 1.861 -1.458 0.228 -0.026 0.296 -0.002 0.483 0.164l0.217 0.194v1.826l-1.376 0.499c-1.886 0.684 -2.282 0.843 -3.168 1.271 -2.535 1.225 -3.742 2.722 -3.742 4.639 0 1.043 0.373 1.998 1.044 2.671 0.483 0.485 0.943 0.766 1.689 1.033 0.55 0.197 0.582 0.201 1.713 0.2 1.135 -0.001 1.161 -0.004 1.757 -0.211 0.332 -0.115 0.764 -0.308 0.96 -0.427 0.381 -0.233 1.019 -0.854 1.332 -1.295l0.191 -0.271 0.043 0.335c0.114 0.895 0.751 1.531 1.809 1.807 0.5 0.13 1.92 0.127 2.567 -0.005 0.627 -0.128 1.331 -0.409 1.795 -0.714 0.718 -0.472 1.404 -1.29 1.465 -1.747 0.029 -0.213 0.006 -0.274 -0.162 -0.443 -0.155 -0.155 -0.25 -0.195 -0.463 -0.195 -0.222 0 -0.303 0.037 -0.469 0.215 -0.238 0.256 -0.424 0.361 -0.637 0.361 -0.335 0 -0.329 0.064 -0.368 -3.866 -0.034 -3.5 -0.042 -3.676 -0.176 -4.166 -0.209 -0.766 -0.528 -1.36 -1.007 -1.877 -0.841 -0.908 -1.9 -1.432 -3.453 -1.707 -0.562 -0.1 -2.336 -0.173 -2.912 -0.12m1.058 6.212c-1.199 0.615 -1.826 1.799 -1.74 3.285 0.044 0.758 0.135 1.044 0.408 1.284 0.268 0.235 0.564 0.246 1.01 0.036 0.342 -0.161 0.514 -0.322 0.729 -0.68 0.129 -0.215 0.135 -0.306 0.135 -2.192 0 -1.082 -0.021 -1.967 -0.048 -1.965s-0.249 0.106 -0.494 0.232" stroke="none" fill="#c3441d" fill-rule="evenodd" stroke-width="0.064"/></svg>