<svg width="32" height="32" viewBox="0 0 32 32" fill="none" xmlns="http://www.w3.org/2000/svg">
<path d="M22.2974 29.6032C20.1556 30.5834 17.9176 31.1174 15.583 30.9781C9.21324 30.5982 4.78565 27.4637 2.20671 21.8461C1.3458 19.9708 0.981585 17.9721 1.00071 15.925C1.05997 9.58379 4.96492 4.09635 10.783 1.93808C13.0147 1.1102 15.317 0.831877 17.7001 1.09681C24.0373 1.80136 29.2627 6.51267 30.6047 12.6495C31.6924 17.6237 30.5319 22.0921 27.1667 25.9937C25.8356 27.5369 24.1972 28.7238 22.2974 29.6032ZM22.5673 12.2797C22.0523 10.5996 20.8354 9.60443 19.1749 9.08097C17.297 8.48898 15.3781 8.51509 13.4579 8.85189C12.2755 9.0593 11.1197 9.36616 10.0872 9.99504C9.489 10.3594 8.97627 10.8102 8.71956 11.4717C8.27546 12.6162 8.79943 13.7332 9.90955 13.952C10.8419 14.1358 11.7489 14.0007 12.4644 13.3673C13.0721 12.8294 13.5871 12.1928 14.1404 11.5974C14.5315 11.1765 14.9162 10.7469 15.5014 10.5716C16.0904 10.3952 16.4833 10.638 16.5349 11.2303C16.5679 11.6085 16.5335 11.9923 16.5675 12.3704C16.594 12.6647 16.4661 12.7729 16.1969 12.8728C14.5995 13.4659 12.9873 14.0302 11.4268 14.7055C10.1774 15.2461 9.09074 16.0414 8.36019 17.211C7.28946 18.9253 7.73378 21.2598 9.36279 22.4179C10.2405 23.0419 11.2427 23.319 12.3241 23.3271C14.2017 23.341 15.7753 22.7569 16.8215 21.151C16.8487 21.1094 16.8886 21.0757 16.9644 20.9923C16.9455 22.0917 17.5114 22.7471 18.4812 23.0819C19.5836 23.4625 20.7144 23.3968 21.8295 23.1418C23.1375 22.8427 24.1887 22.1651 24.8882 21.0262C25.1027 20.677 25.0429 20.3485 24.7371 20.1323C24.4603 19.9365 24.1037 19.9948 23.8354 20.2654C23.7206 20.3811 23.5974 20.5017 23.4536 20.5749C23.1522 20.7282 22.913 20.6194 22.8544 20.2989C22.8077 20.044 22.7931 19.7808 22.7924 19.5213C22.7873 17.7164 22.8062 15.9112 22.7802 14.1067C22.7716 13.5138 22.6528 12.9225 22.5673 12.2797Z" fill="#C6471D"/>
<path d="M22.576 12.3054C22.6529 12.9228 22.7718 13.5142 22.7804 14.107C22.8064 15.9116 22.7875 17.7167 22.7925 19.5216C22.7933 19.7812 22.8079 20.0444 22.8545 20.2993C22.9132 20.6197 23.1523 20.7285 23.4537 20.5752C23.5976 20.5021 23.7208 20.3815 23.8356 20.2657C24.1039 19.9951 24.4604 19.9369 24.7373 20.1326C25.0431 20.3489 25.1029 20.6774 24.8884 21.0265C24.1889 22.1655 23.1377 22.8431 21.8297 23.1421C20.7146 23.3971 19.5838 23.4628 18.4814 23.0822C17.5116 22.7475 16.9457 22.0921 16.9646 20.9926C16.8888 21.076 16.8488 21.1097 16.8217 21.1513C15.7755 22.7573 14.2019 23.3414 12.3243 23.3274C11.2429 23.3193 10.2406 23.0422 9.36297 22.4183C7.73396 21.2601 7.28964 18.9256 8.36037 17.2113C9.09092 16.0417 10.1776 15.2464 11.427 14.7058C12.9875 14.0305 14.5997 13.4662 16.1971 12.8732C16.4663 12.7732 16.5941 12.665 16.5677 12.3707C16.5337 11.9927 16.5681 11.6089 16.5351 11.2306C16.4834 10.6384 16.0906 10.3955 15.5015 10.572C14.9164 10.7472 14.5317 11.1769 14.1406 11.5977C13.5873 12.1931 13.0723 12.8297 12.4646 13.3676C11.749 14.001 10.8421 14.1361 9.90973 13.9524C8.79961 13.7335 8.27564 12.6165 8.71974 11.4721C8.97645 10.8105 9.48918 10.3597 10.0874 9.99538C11.1198 9.36649 12.2757 9.05964 13.4581 8.85223C15.3782 8.51542 17.2972 8.48932 19.1751 9.08131C20.8355 9.60476 22.0525 10.5999 22.576 12.3054ZM14.816 19.8183C15.713 19.9376 16.5608 19.2274 16.5613 18.3559C16.5617 17.7482 16.5614 17.1406 16.5614 16.5329C16.5614 15.9489 16.5614 15.3649 16.5614 14.7448C16.4304 14.7909 16.3364 14.8185 16.2469 14.8563C14.515 15.5882 13.6468 17.4857 14.2785 19.2172C14.3592 19.4383 14.5999 19.6046 14.816 19.8183Z" fill="#FFFEFE"/>
<path d="M14.7914 19.8076C14.6001 19.6049 14.3594 19.4387 14.2787 19.2175C13.6469 17.486 14.5152 15.5886 16.247 14.8566C16.3365 14.8188 16.4306 14.7912 16.5616 14.7451C16.5616 15.3652 16.5616 15.9492 16.5616 16.5332C16.5616 17.1409 16.5619 17.7486 16.5615 18.3562C16.5609 19.2277 15.7132 19.9379 14.7914 19.8076Z" fill="#C6481F"/>
</svg>
