<svg width="24" height="24" viewBox="0 0 24 24" fill="none" xmlns="http://www.w3.org/2000/svg">
<path d="M18.5627 12.1114C18.3163 11.778 18.0164 11.4891 17.7379 11.2002C17.0202 10.5335 16.206 10.0558 15.5204 9.35574C13.9243 7.73347 13.5708 5.05561 14.5885 3C13.5708 3.25556 12.6817 3.83336 11.9211 4.46671C9.14659 6.77789 8.05393 10.8558 9.36084 14.3559C9.40369 14.467 9.44654 14.5781 9.44654 14.7226C9.44654 14.967 9.28585 15.1892 9.07161 15.2781C8.82522 15.3892 8.56813 15.3226 8.36459 15.1448C8.30379 15.092 8.25295 15.0279 8.21462 14.9559C7.00413 13.367 6.81131 11.0891 7.62544 9.26685C5.83648 10.778 4.86166 13.3336 5.00092 15.7448C5.0652 16.3004 5.12947 16.856 5.31158 17.4115C5.46155 18.0782 5.75079 18.7449 6.07216 19.3338C7.22909 21.2561 9.23229 22.6339 11.3855 22.9117C13.6779 23.2117 16.131 22.7783 17.8878 21.1339C19.8482 19.2894 20.5338 16.3337 19.5268 13.8003L19.3876 13.5114C19.1626 13.0003 18.5627 12.1114 18.5627 12.1114ZM15.1776 19.1116C14.8777 19.3782 14.3849 19.6671 13.9993 19.7783C12.7995 20.2227 11.5997 19.6005 10.8927 18.8671C12.1675 18.556 12.928 17.5782 13.153 16.5893C13.3351 15.7004 12.9923 14.967 12.8531 14.1114C12.7245 13.2892 12.7459 12.5892 13.0352 11.8225C13.2387 12.2447 13.4529 12.6669 13.71 13.0003C14.5349 14.1114 15.8311 14.6003 16.1096 16.1115C16.1525 16.267 16.1739 16.4226 16.1739 16.5893C16.206 17.5004 15.8204 18.5004 15.1776 19.1116Z" fill="black"/>
</svg>
