<svg fill="none" xmlns="http://www.w3.org/2000/svg" viewBox="0 23.37 131.2 31.08">
<path d="M40.042 44.49C40.042 45.022 40.2573 45.5033 40.688 45.934C41.1187 46.3393 41.6887 46.542 42.398 46.542C43.082 46.542 43.766 46.39 44.45 46.086C45.1593 45.782 45.8307 45.326 46.464 44.718V41.906H42.74C41.8787 41.906 41.2073 42.172 40.726 42.704C40.27 43.236 40.042 43.8313 40.042 44.49ZM42.474 50.456C40.2193 50.456 38.5473 49.9113 37.458 48.822C36.3687 47.7073 35.824 46.2633 35.824 44.49C35.824 42.59 36.47 41.1333 37.762 40.12C39.054 39.1067 40.7387 38.6 42.816 38.6H46.426C46.4007 37.6627 46.122 36.9407 45.59 36.434C45.0833 35.902 44.374 35.636 43.462 35.636C42.6007 35.636 41.6633 35.7627 40.65 36.016C39.6367 36.244 38.788 36.5227 38.104 36.852L36.774 32.748C37.4833 32.2667 38.56 31.874 40.004 31.57C41.4733 31.2407 42.6007 31.076 43.386 31.076C45.59 31.076 47.4773 31.722 49.048 33.014C50.6187 34.2807 51.404 35.902 51.404 37.878V50H48.858L47.642 48.442C46.958 48.974 46.1473 49.4427 45.21 49.848C44.298 50.2533 43.386 50.456 42.474 50.456ZM66.0578 31.57L67.0458 35.522C66.2098 35.522 65.2344 35.7627 64.1198 36.244C63.0304 36.7253 61.9538 37.4347 60.8898 38.372V50H55.9498V31.57H58.5338L60.1678 34.268C60.9278 33.6093 61.8524 33.0013 62.9418 32.444C64.0311 31.8613 65.0698 31.57 66.0578 31.57ZM78.0809 50.456C75.1676 50.456 72.8876 49.582 71.2409 47.834C69.6196 46.0607 68.8089 43.692 68.8089 40.728C68.8089 37.7893 69.6576 35.446 71.3549 33.698C73.0776 31.95 75.4209 31.076 78.3849 31.076C81.4502 31.076 83.8189 31.988 85.4909 33.812C87.1882 35.6107 88.0369 37.9793 88.0369 40.918C88.0369 43.8567 87.1249 46.1873 85.3009 47.91C83.4769 49.6073 81.0702 50.456 78.0809 50.456ZM82.9449 40.918C82.9449 39.17 82.5522 37.802 81.7669 36.814C81.0069 35.8007 79.9176 35.294 78.4989 35.294C77.0549 35.294 75.9276 35.7373 75.1169 36.624C74.3062 37.5107 73.9009 38.866 73.9009 40.69C73.9009 42.514 74.2429 43.8947 74.9269 44.832C75.6362 45.7693 76.7129 46.238 78.1569 46.238C79.5756 46.238 80.7282 45.82 81.6149 44.984C82.5016 44.1227 82.9449 42.7673 82.9449 40.918ZM107.829 33.736C108.614 32.8493 109.653 32.1527 110.945 31.646C112.262 31.114 113.44 30.848 114.479 30.848C116.987 30.848 118.76 31.5827 119.799 33.052C120.863 34.5213 121.395 36.32 121.395 38.448V50H116.417V38.676C116.417 37.5107 116.138 36.624 115.581 36.016C115.024 35.3827 114.213 35.066 113.149 35.066C112.44 35.066 111.692 35.256 110.907 35.636C110.122 36.016 109.412 36.4467 108.779 36.928C108.804 37.1813 108.83 37.4347 108.855 37.688C108.88 37.9413 108.893 38.1947 108.893 38.448V50H103.915V38.676C103.915 37.5107 103.636 36.624 103.079 36.016C102.522 35.3827 101.724 35.066 100.685 35.066C100.052 35.066 99.4056 35.2053 98.747 35.484C98.1136 35.7373 97.5056 36.0667 96.923 36.472V50H91.983V31.57H94.567L95.783 33.242C96.619 32.482 97.6196 31.8993 98.785 31.494C99.9756 31.0633 101.04 30.848 101.977 30.848C103.421 30.848 104.624 31.114 105.587 31.646C106.55 32.1527 107.297 32.8493 107.829 33.736ZM128.371 23.4C129.156 23.4 129.815 23.666 130.347 24.198C130.904 24.73 131.183 25.3887 131.183 26.174C131.183 26.9593 130.904 27.618 130.347 28.15C129.815 28.682 129.156 28.948 128.371 28.948C127.611 28.948 126.965 28.682 126.433 28.15C125.901 27.618 125.635 26.9593 125.635 26.174C125.635 25.3887 125.901 24.73 126.433 24.198C126.965 23.666 127.611 23.4 128.371 23.4ZM130.841 31.57V50H125.901V31.57H130.841Z" fill="black"/>
<g clip-path="url(#clip0_512_16)">
<path fill-rule="evenodd" clip-rule="evenodd" d="M13.154 32.5372C10.892 32.7432 8.86204 33.4652 7.93504 34.3912C7.41604 34.9102 7.24804 35.2822 7.21604 35.9852C7.19204 36.5202 7.20303 36.5852 7.37204 36.9072C7.73304 37.5922 8.44504 37.8872 9.42704 37.7572C10.435 37.6242 11.144 37.1232 12.161 35.8272C12.974 34.7902 13.426 34.4362 14.022 34.3692C14.25 34.3432 14.318 34.3672 14.505 34.5332L14.722 34.7272V36.5532L13.346 37.0522C11.46 37.7362 11.064 37.8952 10.178 38.3232C7.64304 39.5482 6.43604 41.0452 6.43604 42.9622C6.43604 44.0052 6.80904 44.9602 7.48004 45.6332C7.96304 46.1182 8.42304 46.3992 9.16904 46.6662C9.71904 46.8632 9.75104 46.8672 10.882 46.8662C12.017 46.8652 12.043 46.8622 12.639 46.6552C12.971 46.5402 13.403 46.3472 13.599 46.2282C13.98 45.9952 14.618 45.3742 14.931 44.9332L15.122 44.6622L15.165 44.9972C15.279 45.8922 15.916 46.5282 16.974 46.8042C17.474 46.9342 18.894 46.9312 19.541 46.7992C20.168 46.6712 20.872 46.3902 21.336 46.0852C22.054 45.6132 22.74 44.7952 22.801 44.3382C22.83 44.1252 22.807 44.0642 22.639 43.8952C22.484 43.7402 22.389 43.7002 22.176 43.7002C21.954 43.7002 21.873 43.7372 21.707 43.9152C21.469 44.1712 21.283 44.2762 21.07 44.2762C20.735 44.2762 20.741 44.3402 20.702 40.4102C20.668 36.9102 20.66 36.7342 20.526 36.2442C20.317 35.4782 19.998 34.8842 19.519 34.3672C18.678 33.4592 17.619 32.9352 16.066 32.6602C15.504 32.5602 13.73 32.4872 13.154 32.5402M14.212 38.7522C13.013 39.3672 12.386 40.5512 12.472 42.0372C12.516 42.7952 12.607 43.0812 12.88 43.3212C13.148 43.5562 13.444 43.5672 13.89 43.3572C14.232 43.1962 14.404 43.0352 14.619 42.6772C14.748 42.4622 14.754 42.3712 14.754 40.4852C14.754 39.4032 14.733 38.5182 14.706 38.5202C14.679 38.5222 14.457 38.6262 14.212 38.7522Z" fill="#FBFBFA"/>
<path fill-rule="evenodd" clip-rule="evenodd" d="M13.314 25.0471C13.208 25.0621 12.848 25.1051 12.514 25.1431C7.23799 25.7421 2.52499 29.6571 0.770991 34.9011C0.483991 35.7581 0.272991 36.6451 0.122991 37.6191C-0.0180087 38.5371 -0.0370086 40.6951 0.0889914 41.5871C0.505991 44.5481 1.51699 46.9061 3.34199 49.1711C6.19699 52.7151 10.772 54.7371 15.152 54.3921C17.272 54.2251 19.188 53.6611 20.86 52.7101C22.586 51.7291 23.864 50.6931 25 49.3551C26.026 48.1471 27.223 46.0501 27.682 44.6581C27.953 43.8361 28.229 42.6691 28.363 41.7781C28.518 40.7471 28.517 38.6891 28.36 37.6501C27.883 34.4881 26.509 31.6471 24.385 29.4331C22.149 27.1011 19.347 25.6331 16.257 25.1741C15.575 25.0731 13.704 24.9921 13.313 25.0471M13.154 32.5371C10.892 32.7431 8.86199 33.4651 7.93499 34.3911C7.41599 34.9101 7.24799 35.2821 7.21599 35.9851C7.19199 36.5201 7.20299 36.5851 7.37199 36.9071C7.73299 37.5921 8.44499 37.8871 9.42699 37.7571C10.435 37.6241 11.144 37.1231 12.161 35.8271C12.974 34.7901 13.426 34.4361 14.022 34.3691C14.25 34.3431 14.318 34.3671 14.505 34.5331L14.722 34.7271V36.5531L13.346 37.0521C11.46 37.7361 11.064 37.8951 10.178 38.3231C7.64299 39.5481 6.43599 41.0451 6.43599 42.9621C6.43599 44.0051 6.80899 44.9601 7.47999 45.6331C7.96299 46.1181 8.42299 46.3991 9.16899 46.6661C9.71899 46.8631 9.75099 46.8671 10.882 46.8661C12.017 46.8651 12.043 46.8621 12.639 46.6551C12.971 46.5401 13.403 46.3471 13.599 46.2281C13.98 45.9951 14.618 45.3741 14.931 44.9331L15.122 44.6621L15.165 44.9971C15.279 45.8921 15.916 46.5281 16.974 46.8041C17.474 46.9341 18.894 46.9311 19.541 46.7991C20.168 46.6711 20.872 46.3901 21.336 46.0851C22.054 45.6131 22.74 44.7951 22.801 44.3381C22.83 44.1251 22.807 44.0641 22.639 43.8951C22.484 43.7401 22.389 43.7001 22.176 43.7001C21.954 43.7001 21.873 43.7371 21.707 43.9151C21.469 44.1711 21.283 44.2761 21.07 44.2761C20.735 44.2761 20.741 44.3401 20.702 40.4101C20.668 36.9101 20.66 36.7341 20.526 36.2441C20.317 35.4781 19.998 34.8841 19.519 34.3671C18.678 33.4591 17.619 32.9351 16.066 32.6601C15.504 32.5601 13.73 32.4871 13.154 32.5401M14.212 38.7521C13.013 39.3671 12.386 40.5511 12.472 42.0371C12.516 42.7951 12.607 43.0811 12.88 43.3211C13.148 43.5561 13.444 43.5671 13.89 43.3571C14.232 43.1961 14.404 43.0351 14.619 42.6771C14.748 42.4621 14.754 42.3711 14.754 40.4851C14.754 39.4031 14.733 38.5181 14.706 38.5201C14.679 38.5221 14.457 38.6261 14.212 38.7521Z" fill="#C3441D"/>
</g>
<defs>
<clipPath id="clip0_512_16">
<rect width="28.5" height="29.45" fill="white" transform="translate(0 25)"/>
</clipPath>
</defs>
</svg>