<svg width="24" height="24" viewBox="0 0 24 24" fill="none" xmlns="http://www.w3.org/2000/svg">
<path d="M3.77002 20.23C3.82069 18.9573 4.02769 17.84 4.39102 16.878C4.75502 15.9153 5.23702 15.0873 5.83702 14.394C6.43702 13.7007 7.13502 13.142 7.93102 12.718C8.72702 12.294 9.58335 11.9907 10.5 11.808V8.827C8.30669 8.58233 6.67835 7.984 5.61502 7.032C4.55035 6.08 3.94769 4.99233 3.80702 3.769H20.191C20.0377 4.99233 19.4324 6.08 18.375 7.032C17.3177 7.984 15.6927 8.58233 13.5 8.827V11.807C14.4167 11.991 15.2734 12.2947 16.07 12.718C16.8667 13.1413 17.5644 13.7 18.163 14.394C18.763 15.0873 19.245 15.9153 19.609 16.878C19.973 17.8407 20.1804 18.9583 20.231 20.231H15.5V19.231H19.202C18.8634 16.9023 18.0007 15.229 16.614 14.211C15.2274 13.193 13.6894 12.6847 12 12.686C10.3107 12.6873 8.77235 13.1953 7.38502 14.21C5.99769 15.2247 5.13535 16.898 4.79802 19.23H8.50002V20.23H3.77002ZM12 20.23C11.578 20.23 11.2227 20.0857 10.934 19.797C10.6454 19.5083 10.5007 19.153 10.5 18.731C10.5 18.5243 10.5384 18.3333 10.615 18.158C10.691 17.982 10.8014 17.828 10.946 17.696C11.218 17.424 11.768 17.093 12.596 16.703C13.424 16.3123 14.2574 15.9563 15.096 15.635C14.7707 16.4217 14.4137 17.242 14.025 18.096C13.6364 18.95 13.3064 19.513 13.035 19.785C12.9024 19.9297 12.7484 20.04 12.573 20.116C12.397 20.1927 12.206 20.231 12 20.231" fill="black"/>
</svg>
