<svg width="24" height="24" viewBox="0 0 24 24" fill="none" xmlns="http://www.w3.org/2000/svg">
<path d="M15.335 3.48372L22.976 8.31983C23.1404 8.42392 23.2752 8.56494 23.3684 8.73036C23.4617 8.89579 23.5104 9.08051 23.5104 9.26814C23.5104 9.45576 23.4617 9.64048 23.3684 9.80591C23.2752 9.97134 23.1404 10.1123 22.976 10.2164L15.335 15.0537C14.8419 15.3659 14.2626 15.5325 13.6699 15.5325C13.0773 15.5325 12.4979 15.3659 12.0049 15.0537L4.36389 10.2164C4.19947 10.1123 4.06467 9.97134 3.97143 9.80591C3.87819 9.64048 3.82941 9.45576 3.82941 9.26814C3.82941 9.08051 3.87819 8.89579 3.97143 8.73036C4.06467 8.56494 4.19947 8.42392 4.36389 8.31983L12.0049 3.48372C12.4979 3.17155 13.0773 3.00496 13.6699 3.00496C14.2626 3.00496 14.8419 3.17155 15.335 3.48372ZM23.3049 13.4762C23.1268 13.747 22.8908 13.9792 22.6122 14.1578L15.3494 18.8127C14.8533 19.1307 14.2685 19.3006 13.6699 19.3006C13.0714 19.3006 12.4865 19.1307 11.9905 18.8127L4.72763 14.1578C4.29295 13.8794 3.96622 13.4735 3.79735 13.0022C3.62848 12.5309 3.62677 12.02 3.79246 11.5477L12.0049 16.7451C12.4659 17.0369 13.003 17.2017 13.5567 17.2214C14.1103 17.2411 14.6589 17.1149 15.1417 16.8568L15.3338 16.7451L23.5462 11.5477C23.658 11.8662 23.6944 12.2042 23.6527 12.5376C23.611 12.871 23.4922 13.1915 23.3049 13.4762ZM23.3049 17.1805C23.1268 17.4513 22.8908 17.6835 22.6122 17.8621L15.3494 22.517C14.8533 22.835 14.2685 23.005 13.6699 23.005C13.0714 23.005 12.4865 22.835 11.9905 22.517L4.72763 17.8621C4.29295 17.5837 3.96622 17.1778 3.79735 16.7065C3.62848 16.2352 3.62677 15.7244 3.79246 15.252L12.0049 20.4494C12.4659 20.7412 13.003 20.906 13.5567 20.9257C14.1103 20.9454 14.6589 20.8193 15.1417 20.5611L15.3338 20.4494L23.5462 15.252C23.658 15.5705 23.6944 15.9085 23.6527 16.2419C23.611 16.5753 23.4922 16.8958 23.3049 17.1805Z" fill="black"/>
</svg>
