<svg fill="none" overflow="visible" xmlns="http://www.w3.org/2000/svg" viewBox="2.07 2.05 22.03 22.03">
<path fill-rule="evenodd" clip-rule="evenodd" d="M10.2552 21.0789C10.4527 19.4735 10.1827 17.7992 9.58208 16.2964C8.91717 14.6335 8.03373 12.8329 7.92388 11.0424C7.83157 9.53399 8.18564 7.74917 9.12985 6.52733C10.164 5.18928 11.862 4.33974 13.7305 4.33974H15.4974C16.9631 4.33967 18.3753 4.87146 19.4539 5.82963C20.5325 6.78779 21.1987 8.10235 21.3204 9.51256L21.7422 14.3999C21.7556 14.5555 21.7355 14.712 21.683 14.8597C21.6305 15.0073 21.5469 15.1429 21.4374 15.2577C21.3279 15.3725 21.1949 15.4642 21.0468 15.5269C20.8988 15.5895 20.7388 15.6218 20.5772 15.6218H14.3534C13.3823 15.6218 12.6063 16.3811 12.5993 17.3051C12.59 18.3994 12.6613 19.7499 12.1401 20.7574C11.6727 21.6599 11.2356 21.8269 10.8476 21.8269C10.4971 21.8269 10.2166 21.3835 10.2552 21.0789ZM10.8476 24.0833C12.4322 24.0833 13.5283 23.1221 14.2307 21.7671C14.8406 20.5893 14.8979 19.1722 14.9283 17.8782H20.5772C21.0622 17.8783 21.542 17.7811 21.9861 17.593C22.4303 17.4049 22.8292 17.1298 23.1576 16.7851C23.486 16.4405 23.7368 16.0339 23.894 15.5909C24.0513 15.1479 24.1116 14.6782 24.0712 14.2115L23.6493 9.32527C23.479 7.35102 22.5464 5.51068 21.0364 4.16925C19.5264 2.82782 17.5494 2.08329 15.4974 2.08333H13.7305C12.6219 2.08062 11.5245 2.29738 10.5061 2.72021C9.48769 3.14303 8.56988 3.76296 7.80936 4.54169C7.27533 4.40644 6.72547 4.33818 6.17337 4.33861C4.87859 4.33861 3.80351 5.04036 3.10704 6.15502C2.42927 7.2381 2.08337 8.73184 2.08337 10.5437C2.08337 12.3556 2.43044 13.8516 3.10704 14.9347C3.80351 16.0505 4.87859 16.75 6.17337 16.75C6.50174 16.75 6.84997 16.6936 7.1982 16.5988C7.73341 17.9526 8.11436 19.3482 7.9344 20.8126C7.73341 22.4429 9.11349 24.0833 10.8476 24.0833ZM6.40241 14.4665C5.83565 14.5793 5.39159 14.2228 5.1088 13.7693C4.72785 13.16 4.42051 12.1176 4.42051 10.5449C4.42051 8.97215 4.72785 7.92856 5.10763 7.31933C5.46989 6.74169 5.85552 6.59615 6.17337 6.59615C6.24816 6.59615 6.32217 6.59803 6.3954 6.60179C5.76904 7.96466 5.50027 9.69307 5.59142 11.1755C5.64634 12.0837 6.01327 13.3394 6.40241 14.4665Z" fill="black"/>
</svg>