<svg width="20" height="20" viewBox="0 0 20 20" fill="none" xmlns="http://www.w3.org/2000/svg">
<path fill-rule="evenodd" clip-rule="evenodd" d="M8.20407 16.8631C8.36206 15.5788 8.14611 14.2394 7.66559 13.0372C7.13366 11.7068 6.42691 10.2663 6.33903 8.83392C6.26518 7.6272 6.54844 6.19934 7.30381 5.22186C8.13115 4.15143 9.4895 3.47179 10.9843 3.47179H12.3978C13.5704 3.47174 14.7002 3.89717 15.5631 4.6637C16.4259 5.43024 16.9589 6.48188 17.0562 7.61005L17.3937 11.5199C17.4044 11.6444 17.3883 11.7696 17.3463 11.8877C17.3044 12.0059 17.2375 12.1143 17.1499 12.2062C17.0623 12.298 16.9559 12.3714 16.8374 12.4215C16.7189 12.4716 16.591 12.4975 16.4617 12.4974H11.4826C10.7057 12.4974 10.085 13.1048 10.0794 13.844C10.0719 14.7195 10.1289 15.7999 9.71199 16.6059C9.33805 17.3279 8.98842 17.4615 8.67804 17.4615C8.39759 17.4615 8.17322 17.1068 8.20407 16.8631ZM8.67804 19.2666C9.94571 19.2666 10.8226 18.4977 11.3845 17.4137C11.8724 16.4714 11.9183 15.3378 11.9426 14.3026H16.4617C16.8497 14.3026 17.2335 14.2249 17.5888 14.0744C17.9442 13.9239 18.2633 13.7038 18.526 13.4281C18.7887 13.1524 18.9894 12.8271 19.1152 12.4727C19.2409 12.1183 19.2892 11.7425 19.2569 11.3692L18.9194 7.46022C18.7831 5.88082 18.037 4.40854 16.829 3.3354C15.621 2.26226 14.0394 1.66663 12.3978 1.66667H10.9843C10.0975 1.6645 9.21955 1.8379 8.40481 2.17617C7.59008 2.51443 6.85583 3.01037 6.24742 3.63335C5.82019 3.52515 5.3803 3.47055 4.93862 3.47089C3.9028 3.47089 3.04273 4.03229 2.48556 4.92402C1.94334 5.79048 1.66663 6.98547 1.66663 8.43499C1.66663 9.88451 1.94428 11.0813 2.48556 11.9478C3.04273 12.8404 3.9028 13.4 4.93862 13.4C5.20132 13.4 5.4799 13.3549 5.75849 13.279C6.18665 14.3621 6.49142 15.4786 6.34745 16.6501C6.18665 17.9543 7.29072 19.2666 8.67804 19.2666ZM5.12185 11.5732C4.66845 11.6635 4.3132 11.3782 4.08697 11.0154C3.7822 10.528 3.53634 9.69406 3.53634 8.43589C3.53634 7.17772 3.7822 6.34285 4.08603 5.85546C4.37584 5.39335 4.68434 5.27692 4.93862 5.27692C4.99845 5.27692 5.05766 5.27843 5.11624 5.28143C4.61516 6.37173 4.40014 7.75446 4.47306 8.94042C4.517 9.66699 4.81055 10.6715 5.12185 11.5732Z" fill="black"/>
</svg>
