<svg width="20" height="20" viewBox="0 0 20 20" fill="none" xmlns="http://www.w3.org/2000/svg">
<path fill-rule="evenodd" clip-rule="evenodd" d="M7.91663 17.9167C9.04663 17.9167 9.82829 17.2067 10.3291 16.2058C10.7641 15.3358 10.805 14.2892 10.8266 13.3333H14.855C15.2009 13.3334 15.543 13.2617 15.8597 13.1227C16.1765 12.9837 16.461 12.7805 16.6951 12.526C16.9293 12.2714 17.1082 11.971 17.2203 11.6438C17.3324 11.3166 17.3755 10.9697 17.3466 10.625L17.0458 7.01583C16.9243 5.55758 16.2593 4.19823 15.1824 3.2074C14.1056 2.21657 12.6958 1.66664 11.2325 1.66667H9.97246C9.1819 1.66467 8.39932 1.82477 7.67307 2.13708C6.94681 2.4494 6.2923 2.9073 5.74996 3.4825C5.36913 3.3826 4.97701 3.33218 4.58329 3.3325C3.65996 3.3325 2.89329 3.85083 2.39663 4.67417C1.91329 5.47417 1.66663 6.5775 1.66663 7.91583C1.66663 9.25417 1.91413 10.3592 2.39663 11.1592C2.89329 11.9833 3.65996 12.5 4.58329 12.5C4.81746 12.5 5.06579 12.4583 5.31413 12.3883C5.69579 13.3883 5.96746 14.4192 5.83913 15.5008C5.69579 16.705 6.67996 17.9167 7.91663 17.9167Z" fill="black"/>
</svg>
