<svg width="24" height="24" viewBox="0 0 24 24" fill="none" xmlns="http://www.w3.org/2000/svg">
<path d="M16.1069 2.25V3.70795H18.7044L16.244 6.19085C15.3646 5.52673 14.2929 5.16695 13.1909 5.16591C11.8277 5.16591 10.5548 5.70535 9.59109 6.66978C9.11471 7.1404 8.7365 7.70089 8.47839 8.31878C8.22028 8.93666 8.08741 9.59963 8.08748 10.2693C8.08755 10.9389 8.22055 11.6018 8.47879 12.2197C8.73702 12.8375 9.11534 13.3979 9.59181 13.8684C10.226 14.5026 10.9813 14.9582 11.824 15.1893C11.9071 15.1259 12.0004 15.0596 12.0748 14.9852C12.3804 14.6744 12.5999 14.2896 12.712 13.8684C11.9182 13.7708 11.1802 13.4096 10.6161 12.8428C9.92789 12.1553 9.54589 11.2427 9.54589 10.2687C9.54589 9.29483 9.92861 8.38361 10.6175 7.69545C11.3042 7.00511 12.217 6.62386 13.1909 6.62386C14.1649 6.62386 15.0768 7.00657 15.7643 7.69545C16.1043 8.03214 16.3741 8.43295 16.5581 8.87468C16.742 9.3164 16.8365 9.79025 16.8359 10.2687C16.8359 10.8993 16.6573 11.4861 16.3577 12.0227C16.4277 12.3988 16.4714 12.7939 16.4714 13.1846C16.4714 13.5486 16.4411 13.9058 16.3803 14.2562C16.5261 14.1374 16.6559 14.0026 16.7907 13.8684C17.7545 12.9033 18.2939 11.6319 18.2939 10.2687C18.2939 9.15341 17.9265 8.09347 17.269 7.21579L19.752 4.75622V7.35283H21.21V2.25H16.1069ZM11.6418 8.26405C11.5587 8.32748 11.4654 8.39381 11.391 8.46817C11.0761 8.78454 10.8705 9.16798 10.7538 9.58569C11.5485 9.68775 12.2738 10.0347 12.8497 10.6106C13.5386 11.2981 13.9214 12.2107 13.9214 13.1839C13.9214 14.1571 13.5386 15.069 12.8497 15.7572C12.1616 16.4483 11.2488 16.8295 10.2749 16.8295C9.30094 16.8295 8.38896 16.4468 7.7015 15.7579C7.36116 15.4215 7.09114 15.0207 6.90716 14.5789C6.72319 14.1372 6.62893 13.6632 6.62987 13.1846C6.62987 12.5541 6.80847 11.9673 7.1081 11.4307C7.03573 11.0475 6.99767 10.6587 6.99437 10.2687C6.99437 9.90522 7.02475 9.54802 7.0855 9.19714C6.93969 9.31597 6.81066 9.45083 6.67507 9.58569C5.71278 10.5487 5.17186 11.8215 5.17186 13.1846C5.17186 14.3 5.53928 15.3599 6.19684 16.2376L4.96774 17.4674L3.50973 16.0094L2.45996 17.0344L3.91797 18.4923L2.45996 19.9503L3.50973 21L4.96774 19.542L6.42575 21L7.45 19.9503L5.99199 18.4923L7.22255 17.2633C8.10107 17.9284 9.17297 18.2881 10.2749 18.2875C11.6381 18.2875 12.911 17.748 13.8747 16.7836C14.8385 15.8206 15.3779 14.5478 15.3779 13.1846C15.3779 11.8215 14.8385 10.5501 13.874 9.58496C13.2398 8.95075 12.4845 8.49514 11.6418 8.26405Z" fill="black"/>
</svg>
