<svg fill="none" xmlns="http://www.w3.org/2000/svg" viewBox="3.75 3.75 22.5 22.5">
<path fill-rule="evenodd" clip-rule="evenodd" d="M14.1162 4.11626C14.3506 3.88192 14.6685 3.75027 15 3.75027C15.3314 3.75027 15.6493 3.88192 15.8837 4.11626L23.3837 11.6163L25.8837 14.1163C26.1114 14.352 26.2374 14.6678 26.2346 14.9955C26.2317 15.3233 26.1003 15.6368 25.8685 15.8685C25.6368 16.1003 25.3232 16.2318 24.9955 16.2346C24.6677 16.2374 24.352 16.1115 24.1162 15.8838L23.75 15.5175V23.75C23.75 24.413 23.4866 25.0489 23.0178 25.5178C22.5489 25.9866 21.913 26.25 21.25 26.25H17.5C17.1685 26.25 16.8505 26.1183 16.6161 25.8839C16.3817 25.6495 16.25 25.3315 16.25 25V21.25H13.75V25C13.75 25.3315 13.6183 25.6495 13.3839 25.8839C13.1495 26.1183 12.8315 26.25 12.5 26.25H8.74999C8.08695 26.25 7.45106 25.9866 6.98222 25.5178C6.51338 25.0489 6.24999 24.413 6.24999 23.75V15.5175L5.88374 15.8838C5.64799 16.1115 5.33223 16.2374 5.00449 16.2346C4.67674 16.2318 4.36323 16.1003 4.13147 15.8685C3.89971 15.6368 3.76825 15.3233 3.7654 14.9955C3.76255 14.6678 3.88854 14.352 4.11624 14.1163L6.61624 11.6163L14.1162 4.11626Z" fill="black"/>
</svg>