<svg overflow="visible" width="20" height="20" viewBox="0 0 20 20" fill="none" xmlns="http://www.w3.org/2000/svg">
<path fill-rule="evenodd" clip-rule="evenodd" d="M2.04125 3.495C2.99375 2.44875 4.35375 1.875 5.95 1.875C7.405 1.875 8.95875 2.5625 10 3.90625C11.0337 2.5625 12.5812 1.875 14.05 1.875C15.6425 1.875 17 2.44625 17.955 3.49C18.9 4.525 19.375 5.9425 19.375 7.51625C19.375 10.2225 17.9837 12.4013 16.2225 14.095C14.4662 15.785 12.26 17.0738 10.4312 18.02C10.2973 18.0893 10.1486 18.1252 9.99782 18.1248C9.84701 18.1244 9.69854 18.0876 9.565 18.0175C7.73625 17.0613 5.53 15.7825 3.77375 14.1013C2.0125 12.4125 0.625 10.2413 0.625 7.51625C0.625 5.9475 1.0975 4.53 2.04125 3.495ZM3.4275 4.7575C2.85875 5.3825 2.5 6.31625 2.5 7.51625C2.5 9.54625 3.52 11.2613 5.07125 12.7463C6.50375 14.12 8.32125 15.2275 10.0025 16.1275C11.6712 15.24 13.49 14.1225 14.9237 12.7438C16.4775 11.2488 17.5 9.525 17.5 7.51625C17.5 6.3125 17.14 5.37875 16.57 4.75375C16.01 4.1425 15.175 3.75 14.05 3.75C12.83 3.75 11.4337 4.53375 10.8912 6.185C10.8299 6.37302 10.7106 6.53682 10.5506 6.65297C10.3905 6.76913 10.1978 6.83167 10 6.83167C9.80222 6.83167 9.60951 6.76913 9.44943 6.65297C9.28935 6.53682 9.1701 6.37302 9.10875 6.185C8.5675 4.535 7.15625 3.75 5.95 3.75C4.82125 3.75 3.9875 4.1425 3.4275 4.7575Z" fill="black"/>
</svg>
