<svg width="16" height="16" viewBox="0 0 16 16" fill="none" xmlns="http://www.w3.org/2000/svg">
<path fill-rule="evenodd" clip-rule="evenodd" d="M4.76 1.49999C3.482 1.49999 2.395 1.95899 1.633 2.79599C0.878 3.62399 0.5 4.75799 0.5 6.01299C0.5 8.19299 1.61 9.92999 3.02 11.281C4.424 12.626 6.19 13.649 7.652 14.414C7.75883 14.47 7.87761 14.4995 7.99826 14.4998C8.1189 14.5002 8.23784 14.4714 8.345 14.416C9.808 13.659 11.573 12.628 12.978 11.276C14.388 9.92099 15.5 8.17799 15.5 6.01299C15.5 4.75299 15.12 3.61999 14.364 2.79199C13.601 1.95699 12.514 1.49899 11.24 1.49899C10.164 1.49899 9.274 1.89799 8.597 2.64999C8.3656 2.91058 8.16526 3.19717 8 3.50399C7.83474 3.19717 7.6344 2.91058 7.403 2.64999C6.726 1.89799 5.836 1.49999 4.76 1.49999Z" fill="black"/>
</svg>
