<svg fill="none" xmlns="http://www.w3.org/2000/svg" viewBox="2.57 2.78 19.87 19.42">
<path d="M2.59766 10.8066C2.59766 15.2264 6.17991 18.8069 10.5977 18.8069C12.053 18.8091 13.4812 18.4124 14.7269 17.6599L18.6057 21.5386L18.6192 21.5251C19.0154 21.9391 19.5779 22.1934 20.2137 22.1934C21.4419 22.1936 22.4024 21.2151 22.4022 19.9881C22.4019 19.3614 22.1512 18.8009 21.7432 18.4009L21.7529 18.3911L17.7507 14.3891C18.3085 13.2773 18.5986 12.0505 18.5977 10.8066C18.5977 6.38661 15.0159 2.80686 10.5977 2.80686C6.17991 2.80686 2.59766 6.38686 2.59766 10.8066ZM15.4519 10.7581C15.4519 13.5206 13.2134 15.7584 10.4519 15.7584C7.69091 15.7584 5.45191 13.5206 5.45191 10.7581C5.45191 7.99561 7.69066 5.75836 10.4519 5.75836C13.2134 5.75811 15.4519 7.99561 15.4519 10.7581Z" fill="black"/>
</svg>